<?xml version="1.0" encoding="UTF-8"?>
<svg id="a" data-name="Layer 1" xmlns="http://www.w3.org/2000/svg" width="500" height="160" viewBox="0 0 500 160">
  <path d="M175.635,48.561c82.952-18.404,170.917-28.178,254.629-9.244,104.746,28.487,38.494,68.606-27.5,82.934-64.717,18.429-371.665,56.88-387.855-27.307C47.79,15.755,304.327,20.088,384.037,13.035c3.205-.108,6.265-.075,10.178-.129,2.27-.031-.116.309-.893-1.174-1.702-3.247,1.907-4.922,3.553-5.889-9.742,1.826-27.612,3.409-40.299,4.641-4.886.464-7.867,8.377-1.349,7.758,14.092-1.558,28.432-2.263,42.312-5.097,4.103-1.405,7.107-6.985,1.373-7.984-41.516.331-83.058,4.166-124.533,6.452C191.719,19.508,77.865,20.041,13.969,78.594c-21.854,24.999,3.412,48.96,28.003,57.097,112.074,37.19,286.992,17.267,399.13-17.631,100.095-38.184,41.815-82.779-32.565-91.626-76.933-11.647-156.107-2.507-231.554,14.369-4.735.21-8.322,8.197-1.349,7.759Z"/>
</svg>