<?xml version="1.0" encoding="UTF-8"?>
<svg id="a" data-name="Layer 1" xmlns="http://www.w3.org/2000/svg" width="350" height="160" viewBox="0 0 350 160">
  <path d="M90.586,16.431c310.954-11.271,341.611,164.524,6.619,124.683-82.135-10.286-126.062-67.585-27.066-103.793,48.487-18.243,101.025-23.131,152.442-24.703,2.402-.057,5.123-1.146,6.124-3.535.788-1.882-.069-4.344-2.475-4.287-45.888,1.102-92.32,5.498-136.524,18.451C54.115,33.748-12.261,59.59,7.582,107.097c39.748,50.33,122.207,46.483,180.77,47.923,51.779-3.462,125.509-2.868,155.846-52.283,13.06-46.326-49.333-67.43-83.8-77.684-41.115-11.483-84.173-15.683-126.73-16.594-13.144-.281-26.291-.201-39.432.149-4.31-.811-9.908,6.635-3.649,7.822Z"/>
</svg>