<?xml version="1.0" encoding="UTF-8"?>
<svg id="a" data-name="Layer 1" xmlns="http://www.w3.org/2000/svg" width="500" height="160" viewBox="0 0 500 160">
  <path d="M278.11,127.126c-78.849,9.867-164.169,21.548-240.632-5.949-18.738-7.419-32.031-24.369-14.007-40.377C100.332,22.236,267.246,13.948,363.527,11.795c29.89,1.167,128.188,1.264,120.71,46.167-9.691,24.386-38.438,37.987-61.23,48.896-84.953,36.603-180.38,38.084-271.421,41.096-1.326-.137-.316-.149-.331-.033.949.67,1.132,3.525-.707,5.049.253-.271-1.245,1.264-.387.327-.382.417-1.294.438-.12.102,1.546-.528,3.117-.975,4.707-1.356,1.203-.305-1.016.235-.018.005,6.234-2.698,20.377-.757,22.691-7.898-.52-6.742-10.992-1.127-15.171-1.192-5.125.529-26.366,4.883-16.861,12.295,82.446-.234,167.244-5.391,246.791-29.037,37.909-10.398,150.028-64.538,80.114-105.055C377.459-15.915,194.73,11.99,95.966,38.17c-55.006,13.036-146.913,66.831-44.647,97.157,54.452,13.669,111.587,10.954,167.081,6.485,19.514-1.769,38.968-4.133,58.361-6.927,4.812-.693,7.831-8.692,1.349-7.758h0Z"/>
</svg>