<?xml version="1.0" encoding="UTF-8"?>
<svg id="a" data-name="Layer 1" xmlns="http://www.w3.org/2000/svg" width="820" height="160" viewBox="0 0 820 160">
  <path d="M179.177,55.907c122.325-25.76,246.946-42.667,372.079-43.89,70.924,1.676,196.045-.664,251.455,45.307,36.75,56.492-222.448,79.945-256.959,82.328-158.533,10.435-321.608,18.635-477.36-18.202-117.515-33.856-19.303-64.613,41.959-74.052,156.226-24.113,315.806-25.96,473.575-26.214.79.136-.255-.012-.244-.049.169-.58.938,1.77-.052-.152-1.502-1.907.105-5.231,2.417-5.937-9.411,2.364-23.668,3.544-35.114,4.783-4.886.464-7.867,8.377-1.349,7.758,7.584-1.854,46.177-1.165,42.217-12.172-1.329-2.433-5.831-2.307-8.175-2.482-18.829-1.41-37.984-.493-56.83-.132-156.243,7.178-316.289.244-468.826,39.347-116.929,36.977-17.955,77.751,46.576,86.225,132.716,27.175,613.23,31.655,706.851-58.427,21.765-37.615-42.618-52.676-68.259-59.148-150.768-30.871-307.275-14.864-458.15,7.732-7.35,2.541-134.259,18.654-105.811,27.378Z"/>
</svg>