<?xml version="1.0" encoding="UTF-8"?>
<svg id="a" data-name="Layer 1" xmlns="http://www.w3.org/2000/svg" width="820" height="160" viewBox="0 0 820 160">
  <path d="M453.292,5.58C322.598,9.75,188.955,12.632,62.786,50.169c-120.464,42.451-33.225,81.887,42.226,91.608,142.162,23.935,586.946,16.379,701.416-58.664C874.001,9.274,551.864,7.602,517.051,11.583c-65.191,2.861-130.839,7.36-195.18,17.868-2.386.918-6.03,3.968-3.806,6.716,5.862,3.199,13.816.755,20.338,1.062,9.121-.349,18.239-.818,27.351-1.355,4.926-.29,7.875-8.142,1.349-7.758-13.568,1.022-29.598,1.247-42.025,1.588l-2.134,6.923c.136-.05.274-.095.414-.133,140.758-17.774,292.951-31.473,434.592.631,16.251,4.896,56.273,15.27,47.703,35.881-1.858,3.265-6.259,6.828-8.443,8.403C714.916,142.76,56.043,187.917,12.73,91.572c.022.6.083-1.016.201-1.855.261-1.851.186-1.255.655-2.318.273-.619,1.636-3.128,1.003-2.118C69.37,29.513,281.632,21.248,362.871,16.158c28.91-1.338,57.838-2.221,86.773-2.755,4.206.866,9.982-6.663,3.649-7.822h0Z"/>
</svg>