<?xml version="1.0" encoding="UTF-8"?>
<svg id="a" data-name="Layer 1" xmlns="http://www.w3.org/2000/svg" width="350" height="160" viewBox="0 0 350 160">
  <path d="M140.938,37.038c57.51-16.58,140.669-41.593,189.53,5.071,10.929,14.39,7.545,31.868-2.972,45.434-49.454,60.853-231.578,80.65-295.356,36.557-13.869-10.186-22.898-25.742-18.735-43.213C31.431,30.263,96.152,18.498,143.601,15.358c52.091-.968,105.017-7.157,156.714,1.252,3.935,1.676,10.821-4.723,5.712-7.376-40.726-7.85-82.62-3.725-123.801-2.946-40.223,1.4-80.395,2.244-118.023,18.262C-28.555,63.416-9.713,143.044,86.902,152.494,387.242,180.639,439.962-39.709,177.461,19.014c-12.674,3.11-25.198,6.782-37.596,10.85-5.243,1.72-5.191,9.23,1.073,7.175Z"/>
</svg>