<?xml version="1.0" encoding="UTF-8"?>
<svg id="a" data-name="Layer 1" xmlns="http://www.w3.org/2000/svg" width="210" height="160" viewBox="0 0 210 160">
  <path d="M90.664,49.304c20.787-14.424,47.905-29.772,74.31-24.848,41.085,7.886,35.009,61.028,9.05,82.946-35.846,36.245-145.227,68.166-152.301-7.594-.17-55.628,59.936-85.51,109.051-85.052,14.516-2.191,81.203-.929,52.221,25.241-4.978,3.488-1.623,9.652,3.499,6.061,9.786-6.86,19.42-20.51,7.31-30.273-7.334-5.913-17.917-7.616-26.976-8.593C106.961,1.165,28.513,20.103,13.786,87.464c-9.654,40.468,24.224,69.534,63.138,66.063,163.989-10.977,163.003-185.085,34.335-124.813-8.396,4.214-16.382,9.176-24.095,14.528-4.999,3.469-1.638,9.627,3.5,6.062h0Z"/>
</svg>