<?xml version="1.0" encoding="UTF-8"?>
<svg id="a" data-name="Layer 1" xmlns="http://www.w3.org/2000/svg" width="210" height="160" viewBox="0 0 210 160">
  <path d="M32.649,147.306C252.11,175.355,250.335-8.69,89.867,7.579-30.726,22.003-5.075,166.651,109.713,153.13c6.926-.894,13.754-2.426,20.471-4.324,5.345-1.51,5.244-8.96-1.073-7.175-22.29,6.298-46.49,6.748-67.897-2.927-31.984-13.571-52.92-53.834-35.846-86.26,9.643-18.682,29.243-29.128,48.878-34.268,151.143-30.647,174.325,136.713-12.106,123.231-8.633-.362-17.248-1.038-25.843-1.923-4.465-.459-9.758,7.193-3.649,7.822Z"/>
</svg>