<?xml version="1.0" encoding="UTF-8"?>
<svg id="a" data-name="Layer 1" xmlns="http://www.w3.org/2000/svg" width="210" height="160" viewBox="0 0 210 160">
  <path d="M122.972,124.594c-39.559,28.405-105.868,9.712-103.204-45.038C26.701,20.724,131.791-3.733,175.563,25.611c44.713,33.748,5.011,89.21-36.221,103.651-21.696,7.893-45.407,21.198-69.024,16.266-12.083-4.225-14.422-18.415-15.223-29.649-.367-4.94-9.614-1.264-9.281,3.21,1.06,44.231,37.539,38.91,68.606,27.332,48.409-12.136,116.642-62.176,79.588-116.75C151.617-18.905,35.558,9.53,13.418,67.724c-20.339,66.96,65.139,98.453,113.054,62.928,5.26-3.197,1.814-9.292-3.5-6.059h0Z"/>
</svg>