<?xml version="1.0" encoding="UTF-8"?>
<svg id="a" data-name="Layer 1" xmlns="http://www.w3.org/2000/svg" width="210" height="160" viewBox="0 0 210 160">
  <path d="M82.077,47.713c93.644-61.265,170.411,45.53,55.083,88.914-24.339,8.886-53.125,15.007-78.582,7.101-36.187-9.436-47.385-52.487-25.65-81.272C61.507,21.601,116.627,19.013,161.546,12.858c-.897.109.407-.071.429.025.147.628.545-1.387-.326-.115-2.131-.92-2.156-2.62.099-5.577-.23.385.474.077.86-.605-1.46.842-10.043,3.03-14.361,4.19-5.41,1.349-5.269,8.756,1.073,7.175,4.745-1.027,26.363-5.173,18.041-12.56-13.519-1.008-27.359,3.069-40.786,4.812-30.845,5.084-61.316,11.48-85.626,32.541C10,66.608-.841,119.907,36.236,143.342c52.562,32.705,180.016-8.143,166.831-81.774-16.39-53.564-86.934-45.376-124.489-19.916-5.29,3.165-1.834,9.253,3.499,6.061h0Z"/>
</svg>