<?xml version="1.0" encoding="UTF-8"?>
<svg id="a" data-name="Layer 1" xmlns="http://www.w3.org/2000/svg" width="210" height="160" viewBox="0 0 210 160">
  <path d="M57.286,54.286c126.054-126.165,211.07,68.341,48.797,93.026-70.811,12.244-125.051-69.218-51.688-109.697,14.066-7.192,29.492-9.895,44.928-12.436,14.553-2.192,30.443-5.784,44.757-4.637.664-.272-.077.333-.28-.397-.329-1.184.166-2.182.241-2.5.087-.372.591-1.112.207-.269-.097.214-1.659,1.165.241-.129-1.539,1.07-3.242,1.865-4.919,2.692,1.695-.813.199-.089-.457.183-5.506,1.684-5.593,9.159,1.073,7.175,3.873-1.604,15.683-6.51,12.154-12.332-2.718-4.483-13.61-2.474-17.519-2.158-41.98,4.662-93.889,9.086-117.226,49.661-44.371,120.468,162.067,118.806,184.382,22.346,11.293-36.272-13.302-79.13-52.921-80.5-37.524-2.08-70.85,21.454-97.448,45.455-4.839,4.444,1.592,8.269,5.677,4.517h0Z"/>
</svg>