<?xml version="1.0" encoding="UTF-8"?>
<svg id="a" data-name="Layer 1" xmlns="http://www.w3.org/2000/svg" width="210" height="160" viewBox="0 0 210 160">
  <path d="M60.788,16.399c41.219-1.947,90.638,5.57,119.13,38.717,35.834,42.222,2.377,86.706-46.739,90.606-37.183,4.773-85.205,1.108-107.432-33.386C-4.714,48.417,82.557,11.406,133.928,12.59c4.94-.222,7.874-8.05,1.35-7.761C-1.424,4.154-50.812,155.325,113.713,155.033c35.502-.679,79.519-14.612,89.421-52.932C213.895,38.622,136.247,8.544,84.64,8.443c-7.502-.273-15.007-.155-22.503.199-4.936.233-7.874,8.066-1.349,7.758Z"/>
</svg>