<?xml version="1.0" encoding="UTF-8"?>
<svg id="a" data-name="Layer 1" xmlns="http://www.w3.org/2000/svg" width="135" height="115" viewBox="0 0 135 115">
  <path d="M23.735,107.594c.305.582,1.187,2.177.135-.364-.073.115-.117.23-.135.364Z"/>
  <path d="M23.735,107.594c-.014-.026-.025-.049-.037-.07.09-.11.105-.251.132-.387.013.03.027.064.039.094,23.17-37.924,62.49-63.765,96.608-91.287,4.933,4.539,10.683-4.088,12.943-7.941,5.894-28.366-108.473,77.918-110.875,86.548-2.615-7.071-7.384-36.373-17.722-32.658-4.118,1.577-4.91,6.817-1.82,7.542,6.325,11.581,10.319,24.953,11.7,38.093-2.547,7.043,8.923,5.483,9.03.068ZM124.646,7.479c.022-.069.11-.2.281-.398,0,.003,0,.005,0,.008-.1.123-.194.253-.282.39ZM128.913,10.343c.014-.01.028-.004.045-.006-.013,0-.031.005-.045.006ZM124.934,7.081s-.001-.004-.002-.006c.02-.023.029-.037.052-.062-.019.021-.032.047-.05.068ZM2.807,68.953c-.016.021-.046.029-.056.056.014-.038.034-.054.056-.056ZM23.535,107.787c.052-.063.094-.153.142-.229.045.432-.579.761-.142.229ZM14.698,107.862c-.041.824-.26.601,0,0h0Z"/>
</svg>