<?xml version="1.0" encoding="UTF-8"?>
<svg id="a" data-name="Layer 1" xmlns="http://www.w3.org/2000/svg" width="135" height="115" viewBox="0 0 135 115">
  <path d="M122.106,13.157c-2.11.839-5.026,3.157-3.921,5.775-30.701,25.982-63.781,50.149-95.318,74.944-3.888-8.82,10.006-44.186-3.217-43.37-6.479.766-10.926,9.179-13.979,13.99-3.447,6.121,5.8,8.321,10.371-1.83.003,12.298-6.407,26.439-.883,37.969,4.604,5.268,11.893-1.041,15.663-3.965,13.005-10.087,26.023-20.157,39.029-30.243,3.849-4.681,85.563-59.78,52.254-53.27ZM15.877,57.494c-.007.009-.002.128.009.318-.104-.07-.125-.17-.009-.318ZM19.972,57.675c.004-.008.007-.014.01-.021.003.01.007.02.019.021-.007,0-.021,0-.029,0ZM23.156,94.881c.087.078.03.126,0,0h0ZM121.267,16.042c.003-.022.018-.047.017-.068-.031-1.327.208.149-.017.068ZM124.646,19.846s.002,0,.003-.001c0,0-.002,0-.003.001Z"/>
</svg>