<?xml version="1.0" encoding="UTF-8"?>
<svg id="a" data-name="Layer 1" xmlns="http://www.w3.org/2000/svg" width="135" height="115" viewBox="0 0 135 115">
  <path d="M128.915,8.046c-7.793-1.043-18.495,8.845-25.655,12.309-30.984,19.383-59.137,42.997-84.863,68.898,3.022-8.27,15.254-46.814-5.123-36.468-3.561,2.852-1.526,5.553,1.482,5.819,6.084,14.069-21.876,55.743-3.73,47.784,29.99-29.228,60.393-58.758,96.6-80.471,5.038,5.07,13.673-6.315,18.25-8.857,2.581-1.771,7.559-6.602,3.04-9.013ZM14.62,58.344c-.136.204-.059-.299.086.093-.081-.018-.116-.048-.086-.093ZM7.175,100.578c.057-.209.215-.346.443-.423-.503.546-.58.926-.443.423ZM125.165,15.792c.4-.134.349-.046,0,0h0Z"/>
</svg>